<svg width="1411" height="352" viewBox="0 0 1411 352" fill="none" xmlns="http://www.w3.org/2000/svg">
<path id="Vector 4" d="M1 127.5C43.5 138.5 69.5 179 69.5 227C69.5 301.673 250.5 190 296.5 262C342.5 334 178.5 376.5 178.5 332C178.5 192 282 160.5 424 127.5C566 94.5 577.5 358 527.5 297C477.5 236 666 190 686 173.5C718.804 146.437 795 134.5 804.5 127.5C874.5 63 943 153 943 208.5C943 264 915 358 1035 317.5C1155 277 1084.5 181 1166 138.5C1247.5 95.9995 1378 101 1328.5 43.9995C1288.9 -1.60049 1366.33 -2.00042 1410 3.49962" stroke="#59596F" stroke-width="2" stroke-dasharray="20 20"/>
</svg>
